<svg version="1.1" xmlns="http://www.w3.org/2000/svg" xmlns:xlink="http://www.w3.org/1999/xlink" width="10" height="16" viewBox="0,0,160,256"><g fill="#ffffff" fill-rule="nonzero" stroke="none" stroke-width="1" stroke-linecap="butt" stroke-linejoin="miter" stroke-miterlimit="10" stroke-dasharray="" stroke-dashoffset="0" font-family="none" font-weight="none" font-size="none" text-anchor="none" style="mix-blend-mode: normal"><g transform="scale(0.5,0.5)"><path d="M80,160c0,-35.3 28.7,-64 64,-64h32c35.3,0 64,28.7 64,64v3.6c0,21.8 -11.1,42.1 -29.4,53.8l-42.2,27.1c-25.2,16.2 -40.4,44.1 -40.4,74v1.5c0,17.7 14.3,32 32,32c17.7,0 32,-14.3 32,-32v-1.4c0,-8.2 4.2,-15.8 11,-20.2l42.2,-27.1c36.6,-23.6 58.8,-64.1 58.8,-107.7v-3.6c0,-70.7 -57.3,-128 -128,-128h-32c-70.7,0 -128,57.3 -128,128c0,17.7 14.3,32 32,32c17.7,0 32,-14.3 32,-32zM160,480c22.09139,0 40,-17.90861 40,-40c0,-22.09139 -17.90861,-40 -40,-40c-22.09139,0 -40,17.90861 -40,40c0,22.09139 17.90861,40 40,40z"></path></g></g></svg>